<svg width="1440" height="4539" viewBox="0 0 1440 4539" fill="none" xmlns="http://www.w3.org/2000/svg">
<g filter="url(#filter0_f_186_44)">
<path d="M115.5 3778C125.5 3712 14.3334 3715.5 -42.4999 3725.5C-50.8333 3929.33 -62.4999 4353 -42.4999 4417C-17.4999 4497 296 4329.5 356 4304.5C416 4279.5 293.5 4181.5 323.5 4141.5C353.5 4101.5 160.5 3943.5 188 3875.5C215.5 3807.5 103 3860.5 115.5 3778Z" fill="#2F45BC"/>
<path d="M1127.05 2815.48C1316.98 2822.26 1442.29 2435.32 1481.21 2241L1581 3472.78C1490.34 3360.62 1031.82 3584.94 867.461 3614.93C703.099 3644.93 617.005 3446.7 560.913 3373.01C504.822 3299.33 660.052 3178.69 750.712 3079.58C841.372 2980.46 889.637 2807.01 1127.05 2815.48Z" fill="url(#paint0_linear_186_44)"/>
<path d="M-75.8093 861.348C-82.2306 845.559 -80.4963 830.551 -75.8093 820V861.348C-64.4794 889.205 -27.7597 919.49 62.929 932C240.538 956.5 309.907 997.5 290.173 1051.5C270.438 1105.5 477.948 1130 448.047 1204.5C418.147 1279 186.717 1312 196.285 1361.5C205.853 1411 62.929 1555.5 62.929 1621.5C62.929 1674.3 -29.5632 1698.5 -75.8093 1704V861.348Z" fill="#4F349F"/>
<path d="M589.5 172.5C459.9 169.7 473.5 86.3333 496.5 45V-7L1513.5 -45C1529.67 134.333 1552.3 480.6 1513.5 431C1465 369 1182.5 486.5 1048 541.5C913.5 596.5 972.5 362 965.5 286.5C958.5 211 751.5 176 589.5 172.5Z" fill="url(#paint1_linear_186_44)" fill-opacity="0.9"/>
</g>
<defs>
<filter id="filter0_f_186_44" x="-180" y="-145" width="1861" height="4683.47" filterUnits="userSpaceOnUse" color-interpolation-filters="sRGB">
<feFlood flood-opacity="0" result="BackgroundImageFix"/>
<feBlend mode="normal" in="SourceGraphic" in2="BackgroundImageFix" result="shape"/>
<feGaussianBlur stdDeviation="50" result="effect1_foregroundBlur_186_44"/>
</filter>
<linearGradient id="paint0_linear_186_44" x1="1495.56" y1="2474.44" x2="440.496" y2="3549.97" gradientUnits="userSpaceOnUse">
<stop stop-color="#8B3D4C"/>
<stop offset="1" stop-color="#4F349F" stop-opacity="0"/>
</linearGradient>
<linearGradient id="paint1_linear_186_44" x1="1008.23" y1="-45" x2="1008.23" y2="549.771" gradientUnits="userSpaceOnUse">
<stop stop-color="#2F45BC"/>
<stop offset="1" stop-color="#2FBCBC" stop-opacity="0"/>
</linearGradient>
</defs>
</svg>
