<svg width="1440" height="4395" viewBox="0 0 1440 4395" fill="none" xmlns="http://www.w3.org/2000/svg">
<path d="M107.5 3734C117.5 3668 6.3334 3671.5 -50.4999 3681.5C-58.8333 3885.33 -70.4999 4309 -50.4999 4373C-25.4999 4453 288 4285.5 348 4260.5C408 4235.5 285.5 4137.5 315.5 4097.5C345.5 4057.5 152.5 3899.5 180 3831.5C207.5 3763.5 95.0001 3816.5 107.5 3734Z" fill="#2F45BC"/>
<path d="M1119.05 2771.48C1308.98 2778.26 1434.29 2391.32 1473.21 2197L1573 3428.78C1482.34 3316.62 1023.82 3540.94 859.461 3570.93C695.099 3600.93 609.005 3402.7 552.913 3329.01C496.822 3255.33 652.052 3134.69 742.712 3035.58C833.372 2936.46 881.637 2763.01 1119.05 2771.48Z" fill="url(#paint0_linear_186_44)"/>
<path d="M-83.8093 817.348C-90.2306 801.559 -88.4963 786.551 -83.8093 776V817.348C-72.4794 845.205 -35.7597 875.49 54.929 888C232.538 912.5 301.907 953.5 282.173 1007.5C262.438 1061.5 469.948 1086 440.047 1160.5C410.147 1235 178.717 1268 188.285 1317.5C197.853 1367 54.929 1511.5 54.929 1577.5C54.929 1630.3 -37.5632 1654.5 -83.8093 1660V817.348Z" fill="#4F349F"/>
<path d="M581.5 128.5C451.9 125.7 465.5 42.3333 488.5 1V-51L1505.5 -89C1521.67 90.3333 1544.3 436.6 1505.5 387C1457 325 1174.5 442.5 1040 497.5C905.5 552.5 964.5 318 957.5 242.5C950.5 167 743.5 132 581.5 128.5Z" fill="url(#paint1_linear_186_44)" fill-opacity="0.9"/>
<defs>
<linearGradient id="paint0_linear_186_44" x1="1487.56" y1="2430.44" x2="432.496" y2="3505.97" gradientUnits="userSpaceOnUse">
<stop stop-color="#8B3D4C"/>
<stop offset="1" stop-color="#4F349F" stop-opacity="0"/>
</linearGradient>
<linearGradient id="paint1_linear_186_44" x1="1000.23" y1="-89" x2="1000.23" y2="505.771" gradientUnits="userSpaceOnUse">
<stop stop-color="#2F45BC"/>
<stop offset="1" stop-color="#2FBCBC" stop-opacity="0"/>
</linearGradient>
</defs>
</svg>
